<mxfile host="app.diagrams.net" modified="2023-04-11T01:25:48.224Z" agent="Mozilla/5.0 (Windows NT 10.0; Win64; x64) AppleWebKit/537.36 (KHTML, like Gecko) Chrome/111.0.0.0 Safari/537.36" etag="TWgmRH_S_Yb80lklhcOk" version="21.1.5" type="device">
  <diagram name="Page-1" id="ka9XCzYk1uiKF56-b8aV">
    <mxGraphModel dx="1372" dy="894" grid="0" gridSize="10" guides="1" tooltips="1" connect="1" arrows="1" fold="1" page="0" pageScale="1" pageWidth="850" pageHeight="1100" math="0" shadow="0">
      <root>
        <mxCell id="0" />
        <mxCell id="1" parent="0" />
        <mxCell id="pgEQ7t3yg5BnbR8O-ZX1-1" value="" style="rounded=1;whiteSpace=wrap;html=1;fontSize=16;" vertex="1" parent="1">
          <mxGeometry x="90" y="-35.5" width="253" height="155" as="geometry" />
        </mxCell>
        <mxCell id="pgEQ7t3yg5BnbR8O-ZX1-4" value="Network Switch" style="rounded=0;whiteSpace=wrap;html=1;fontSize=16;" vertex="1" parent="1">
          <mxGeometry x="174" y="203" width="85" height="61" as="geometry" />
        </mxCell>
        <mxCell id="pgEQ7t3yg5BnbR8O-ZX1-6" value="database" style="shape=cylinder3;whiteSpace=wrap;html=1;boundedLbl=1;backgroundOutline=1;size=15;fontSize=16;" vertex="1" parent="1">
          <mxGeometry x="253" y="5" width="74" height="87" as="geometry" />
        </mxCell>
        <mxCell id="pgEQ7t3yg5BnbR8O-ZX1-7" value="Bash scripts:&lt;br&gt;host_usage.sh&lt;br&gt;host_info.sh" style="rounded=1;whiteSpace=wrap;html=1;fontSize=16;" vertex="1" parent="1">
          <mxGeometry x="107" y="-1" width="117" height="93" as="geometry" />
        </mxCell>
        <mxCell id="pgEQ7t3yg5BnbR8O-ZX1-8" value="Linux host" style="text;strokeColor=none;fillColor=none;html=1;align=center;verticalAlign=middle;whiteSpace=wrap;rounded=0;fontSize=16;" vertex="1" parent="1">
          <mxGeometry x="97" y="-31" width="92" height="23" as="geometry" />
        </mxCell>
        <mxCell id="pgEQ7t3yg5BnbR8O-ZX1-9" value="" style="rounded=1;whiteSpace=wrap;html=1;fontSize=16;" vertex="1" parent="1">
          <mxGeometry x="358" y="231.5" width="253" height="155" as="geometry" />
        </mxCell>
        <mxCell id="pgEQ7t3yg5BnbR8O-ZX1-11" value="Bash scripts:&lt;br&gt;host_usage.sh&lt;br&gt;host_info.sh" style="rounded=1;whiteSpace=wrap;html=1;fontSize=16;" vertex="1" parent="1">
          <mxGeometry x="426" y="271.5" width="117" height="93" as="geometry" />
        </mxCell>
        <mxCell id="pgEQ7t3yg5BnbR8O-ZX1-12" value="Linux host" style="text;strokeColor=none;fillColor=none;html=1;align=center;verticalAlign=middle;whiteSpace=wrap;rounded=0;fontSize=16;" vertex="1" parent="1">
          <mxGeometry x="365" y="236" width="92" height="23" as="geometry" />
        </mxCell>
        <mxCell id="pgEQ7t3yg5BnbR8O-ZX1-13" value="" style="rounded=1;whiteSpace=wrap;html=1;fontSize=16;" vertex="1" parent="1">
          <mxGeometry x="-151" y="231.5" width="253" height="155" as="geometry" />
        </mxCell>
        <mxCell id="pgEQ7t3yg5BnbR8O-ZX1-14" value="Bash scripts:&lt;br&gt;host_usage.sh&lt;br&gt;host_info.sh" style="rounded=1;whiteSpace=wrap;html=1;fontSize=16;" vertex="1" parent="1">
          <mxGeometry x="-83" y="271.5" width="117" height="93" as="geometry" />
        </mxCell>
        <mxCell id="pgEQ7t3yg5BnbR8O-ZX1-15" value="Linux host" style="text;strokeColor=none;fillColor=none;html=1;align=center;verticalAlign=middle;whiteSpace=wrap;rounded=0;fontSize=16;" vertex="1" parent="1">
          <mxGeometry x="-144" y="236" width="92" height="23" as="geometry" />
        </mxCell>
        <mxCell id="pgEQ7t3yg5BnbR8O-ZX1-16" value="" style="endArrow=classic;html=1;rounded=0;fontSize=12;startSize=8;endSize=8;curved=1;entryX=1;entryY=0.5;entryDx=0;entryDy=0;" edge="1" parent="1" target="pgEQ7t3yg5BnbR8O-ZX1-4">
          <mxGeometry width="50" height="50" relative="1" as="geometry">
            <mxPoint x="359" y="248" as="sourcePoint" />
            <mxPoint x="338" y="219" as="targetPoint" />
            <Array as="points" />
          </mxGeometry>
        </mxCell>
        <mxCell id="pgEQ7t3yg5BnbR8O-ZX1-17" value="" style="endArrow=classic;html=1;rounded=0;fontSize=12;startSize=8;endSize=8;curved=1;entryX=1;entryY=0.75;entryDx=0;entryDy=0;" edge="1" parent="1" source="pgEQ7t3yg5BnbR8O-ZX1-11" target="pgEQ7t3yg5BnbR8O-ZX1-4">
          <mxGeometry width="50" height="50" relative="1" as="geometry">
            <mxPoint x="365" y="266" as="sourcePoint" />
            <mxPoint x="269" y="244" as="targetPoint" />
            <Array as="points" />
          </mxGeometry>
        </mxCell>
        <mxCell id="pgEQ7t3yg5BnbR8O-ZX1-18" value="" style="endArrow=classic;html=1;rounded=0;fontSize=12;startSize=8;endSize=8;curved=1;entryX=0;entryY=0.5;entryDx=0;entryDy=0;exitX=0.995;exitY=0.096;exitDx=0;exitDy=0;exitPerimeter=0;" edge="1" parent="1" source="pgEQ7t3yg5BnbR8O-ZX1-13" target="pgEQ7t3yg5BnbR8O-ZX1-4">
          <mxGeometry width="50" height="50" relative="1" as="geometry">
            <mxPoint x="102" y="268" as="sourcePoint" />
            <mxPoint x="152" y="218" as="targetPoint" />
          </mxGeometry>
        </mxCell>
        <mxCell id="pgEQ7t3yg5BnbR8O-ZX1-19" value="" style="endArrow=classic;html=1;rounded=0;fontSize=12;startSize=8;endSize=8;curved=1;entryX=0;entryY=0.75;entryDx=0;entryDy=0;exitX=1;exitY=0.25;exitDx=0;exitDy=0;" edge="1" parent="1" source="pgEQ7t3yg5BnbR8O-ZX1-14" target="pgEQ7t3yg5BnbR8O-ZX1-4">
          <mxGeometry width="50" height="50" relative="1" as="geometry">
            <mxPoint x="112" y="278" as="sourcePoint" />
            <mxPoint x="184" y="244" as="targetPoint" />
            <Array as="points" />
          </mxGeometry>
        </mxCell>
        <mxCell id="pgEQ7t3yg5BnbR8O-ZX1-20" value="" style="endArrow=classic;html=1;rounded=0;fontSize=12;startSize=8;endSize=8;curved=1;exitX=1;exitY=0.5;exitDx=0;exitDy=0;entryX=0;entryY=0.5;entryDx=0;entryDy=0;entryPerimeter=0;" edge="1" parent="1" source="pgEQ7t3yg5BnbR8O-ZX1-7" target="pgEQ7t3yg5BnbR8O-ZX1-6">
          <mxGeometry width="50" height="50" relative="1" as="geometry">
            <mxPoint x="288" y="209" as="sourcePoint" />
            <mxPoint x="338" y="159" as="targetPoint" />
          </mxGeometry>
        </mxCell>
        <mxCell id="pgEQ7t3yg5BnbR8O-ZX1-21" value="" style="endArrow=classic;html=1;rounded=0;fontSize=12;startSize=8;endSize=8;curved=1;entryX=0.5;entryY=1;entryDx=0;entryDy=0;entryPerimeter=0;exitX=0.918;exitY=-0.022;exitDx=0;exitDy=0;exitPerimeter=0;" edge="1" parent="1" source="pgEQ7t3yg5BnbR8O-ZX1-4" target="pgEQ7t3yg5BnbR8O-ZX1-6">
          <mxGeometry width="50" height="50" relative="1" as="geometry">
            <mxPoint x="288" y="209" as="sourcePoint" />
            <mxPoint x="338" y="159" as="targetPoint" />
          </mxGeometry>
        </mxCell>
        <mxCell id="pgEQ7t3yg5BnbR8O-ZX1-22" value="" style="endArrow=classic;html=1;rounded=0;fontSize=12;startSize=8;endSize=8;curved=1;exitX=0.5;exitY=1;exitDx=0;exitDy=0;entryX=0.5;entryY=0;entryDx=0;entryDy=0;" edge="1" parent="1" source="pgEQ7t3yg5BnbR8O-ZX1-1" target="pgEQ7t3yg5BnbR8O-ZX1-4">
          <mxGeometry width="50" height="50" relative="1" as="geometry">
            <mxPoint x="288" y="209" as="sourcePoint" />
            <mxPoint x="338" y="159" as="targetPoint" />
          </mxGeometry>
        </mxCell>
      </root>
    </mxGraphModel>
  </diagram>
</mxfile>
